<?xml version="1.0" encoding="utf-8"?>
<!-- Generator: Adobe Illustrator 17.1.0, SVG Export Plug-In . SVG Version: 6.00 Build 0)  -->
<!DOCTYPE svg PUBLIC "-//W3C//DTD SVG 1.1//EN" "http://www.w3.org/Graphics/SVG/1.1/DTD/svg11.dtd">
<svg version="1.1" id="Layer_1" xmlns="http://www.w3.org/2000/svg" xmlns:xlink="http://www.w3.org/1999/xlink" x="0px" y="0px"
    viewBox="0 0 267 60" enable-background="new 0 0 267 60" xml:space="preserve">
<g>
   <g>
      <path fill="#FEC530" d="M40.3,1.7c-2.7-1-5.7-1.6-8.7-1.7v3.6c2.6,0.1,5,0.6,7.3,1.5L40.3,1.7z"/>
      <path fill="#FEC530" d="M50.3,7.7c-2.2-2-4.7-3.7-7.4-4.9l-1.4,3.3c2.3,1.1,4.4,2.5,6.2,4.2L50.3,7.7z"/>
      <path fill="#FEC530" d="M18.6,6.2l-1.4-3.3c-2.7,1.3-5.2,3-7.3,5l2.6,2.5C14.2,8.7,16.3,7.3,18.6,6.2z"/>
      <path fill="#FEC530" d="M28.7,3.6V0c-3.1,0.1-6.1,0.8-9,1.8l1.4,3.3C23.6,4.2,26.1,3.7,28.7,3.6z"/>
      <path fill="#FEC530" d="M54,18.5l3.3-1.4c-1.3-2.7-3-5.2-5-7.4l-2.5,2.5C51.5,14.1,52.9,16.2,54,18.5z"/>
      <path fill="#FEC530" d="M10.4,12.4L7.8,9.9c-2,2.2-3.6,4.7-4.9,7.4l3.3,1.4C7.3,16.4,8.7,14.3,10.4,12.4z"/>
      <path fill="#FEC530" d="M56.6,28.5l3.6,0c-0.1-3-0.8-6-1.7-8.7l-3.3,1.4C55.9,23.4,56.4,25.9,56.6,28.5z"/>
      <path fill="#FEC530" d="M31.7,56.4l0,3.6c3-0.2,6-0.8,8.7-1.8L39,54.9C36.7,55.7,34.3,56.2,31.7,56.4z"/>
      <path fill="#FEC530" d="M41.7,53.8l1.4,3.3c2.7-1.3,5.2-3,7.4-5l-2.6-2.5C46,51.3,44,52.7,41.7,53.8z"/>
      <path fill="#FEC530" d="M5.2,21.3L1.8,20c-1,2.7-1.5,5.7-1.7,8.7l3.6,0C3.9,26.1,4.4,23.7,5.2,21.3z"/>
      <path fill="#FEC530" d="M49.9,47.5l2.6,2.5c2-2.2,3.6-4.7,4.9-7.4l-3.3-1.4C53,43.6,51.6,45.7,49.9,47.5z"/>
      <path fill="#FEC530" d="M56.6,31.3c-0.1,2.6-0.6,5-1.4,7.3l3.3,1.4c1-2.7,1.6-5.7,1.7-8.7L56.6,31.3z"/>
      <path fill="#FEC530" d="M21.5,54.9l-1.4,3.3c2.7,1,5.7,1.6,8.7,1.7l0-3.6C26.3,56.2,23.8,55.7,21.5,54.9z"/>
      <path fill="#FEC530" d="M3.8,31.6l-3.6,0c0.2,3,0.8,6,1.8,8.7l3.3-1.4C4.4,36.6,3.9,34.1,3.8,31.6z"/>
      <path fill="#FEC530" d="M6.4,41.5l-3.3,1.4c1.3,2.7,3,5.2,5,7.4l2.5-2.6C8.9,45.9,7.5,43.8,6.4,41.5z"/>
      <path fill="#FEC530" d="M10.1,52.3c2.2,2,4.7,3.6,7.4,4.9l1.4-3.3c-2.3-1.1-4.4-2.5-6.2-4.1L10.1,52.3z"/>
      <path fill="#FEC530" d="M53.8,30c0-13-10.6-23.6-23.6-23.6C17.2,6.4,6.6,17,6.6,30c0,13,10.6,23.6,23.6,23.6
         C43.2,53.5,53.8,43,53.8,30z M30.2,45c-8.3,0-15-6.7-15-15c0-8.3,6.7-15,15-15c4.6,0,8.7,2.1,11.4,5.3l-4.3,4.9
         c-1.5-2.3-4.2-3.8-7.1-3.8c-4.7,0-8.6,3.8-8.6,8.6c0,4.7,3.8,8.6,8.6,8.6c2.9,0,5.5-1.5,7.1-3.7l0,0l4.5,4.7
         C39,42.8,34.8,45,30.2,45z"/>
   </g>
   <g>
      <path fill="#FFFFFF" d="M85.3,44.5h-6.5V33L68.7,15.4h7L82,26.2l6.3-10.8h7L85.3,33V44.5z"/>
      <path fill="#FFFFFF" d="M135.7,18c2,1.7,3.1,4.4,3.1,8c0,3.6-1,6.2-3.1,7.9c-2.1,1.7-5.3,2.5-9.6,2.5h-3.9v8.1h-6.5V15.4h10.3
         C130.4,15.4,133.7,16.3,135.7,18z M130.9,29.5c0.8-0.9,1.2-2.2,1.2-3.8c0-1.7-0.5-2.9-1.5-3.6c-1-0.7-2.6-1.1-4.7-1.1h-3.7v9.8
         h4.4C128.7,30.8,130.1,30.3,130.9,29.5z"/>
      <path fill="#FFFFFF" d="M176.8,15.4h6.5v29.1h-6.5V33.1h-11.6v11.5h-6.5V15.4h6.5v12.2h11.6V15.4z"/>
      <path fill="#FFFFFF" d="M227.3,25.1c0,4.7-1.8,7.7-5.5,9l7.4,10.4h-8l-6.5-9.3h-4.5v9.3h-6.5V15.4h11.1c4.5,0,7.8,0.8,9.7,2.3
         C226.3,19.2,227.3,21.7,227.3,25.1z M219.4,28.5c0.8-0.7,1.2-1.9,1.2-3.4c0-1.6-0.4-2.6-1.3-3.2c-0.8-0.6-2.3-0.9-4.4-0.9h-4.9
         v8.6h4.8C217.1,29.6,218.6,29.2,219.4,28.5z"/>
      <path fill="#FFFFFF" d="M266.4,15.4v5.8h-14.5v6h13.1v5.5h-13.1v6h15v5.8h-21.5V15.4H266.4z"/>
   </g>
</g>
</svg>
